<?xml version="1.0" encoding="utf-8"?>
<!-- Generator: Adobe Illustrator 26.0.1, SVG Export Plug-In . SVG Version: 6.00 Build 0)  -->
<svg version="1.1" id="Layer_1" xmlns="http://www.w3.org/2000/svg" xmlns:xlink="http://www.w3.org/1999/xlink" x="0px" y="0px"
	 viewBox="0 0 100 100" style="enable-background:new 0 0 100 100;" xml:space="preserve">
<style type="text/css">
	.st0{fill:url(#SVGID_1_);}
	.st1{fill:#FFFFFF;}
	.st2{fill:#58595B;}
	.st3{fill:#333333;}
</style>
<g>
	<linearGradient id="SVGID_1_" gradientUnits="userSpaceOnUse" x1="1.7194" y1="1.4038" x2="97.6557" y2="97.9671">
		<stop  offset="0" style="stop-color:#80B241"/>
		<stop  offset="0.1357" style="stop-color:#7CAD3F"/>
		<stop  offset="0.3057" style="stop-color:#76A43C"/>
		<stop  offset="0.494" style="stop-color:#6A9436"/>
		<stop  offset="0.6955" style="stop-color:#597E2D"/>
		<stop  offset="0.9053" style="stop-color:#446320"/>
		<stop  offset="0.9983" style="stop-color:#3A5619"/>
	</linearGradient>
	<path class="st0" d="M94.33,100H5.67C2.54,100,0,97.46,0,94.33V5.67C0,2.54,2.54,0,5.67,0h88.66C97.46,0,100,2.54,100,5.67v88.66
		C100,97.46,97.46,100,94.33,100z"/>
	<path class="st1" d="M60.72,92.88L60.72,92.88H11.49c-2.42,0-4.38-1.96-4.38-4.38V11.49c0-2.42,1.96-4.38,4.38-4.38h77.01
		c2.42,0,4.38,1.96,4.38,4.38v49.23l0,0C92.88,64.25,91.58,92.88,60.72,92.88z"/>
	<g>
		<g>
			<path class="st2" d="M22.1,62.73h2.49c2.39,0,2.61,2.2,2.61,2.77c0,1-0.37,1.93-1.7,2.7l2.58,4.3h-1.21l-2.33-4.07
				c-0.48,0.01-0.96,0.01-1.44,0.03v4.04h-1V62.73z M24.04,67.59c1.36,0,2.15-0.71,2.15-2.14c0-1.3-0.53-1.86-2.11-1.86h-0.98v4
				H24.04z"/>
			<path class="st2" d="M29.86,69.13c0.05,1.99,0.93,2.66,2.02,2.66c0.78,0,1.57-0.37,2.22-0.77l0.43,0.91
				c-0.89,0.41-1.74,0.72-2.72,0.72c-2.1,0-2.94-1.84-2.94-3.73c0-1.9,0.86-3.83,2.99-3.83c2.37,0,2.74,2.7,2.74,3.49v0.56H29.86z
				 M33.6,68.28c-0.04-1.19-0.7-2.33-1.82-2.33s-1.66,0.87-1.93,2.33H33.6z"/>
			<path class="st2" d="M41.57,65.24l-2.21,7.35h-1.13l-2.21-7.35h1.04l1.73,5.63l1.74-5.63H41.57z"/>
			<path class="st2" d="M44.02,69.13c0.05,1.99,0.93,2.66,2.02,2.66c0.78,0,1.57-0.37,2.22-0.77l0.43,0.91
				c-0.89,0.41-1.74,0.72-2.72,0.72c-2.1,0-2.94-1.84-2.94-3.73c0-1.9,0.86-3.83,2.99-3.83c2.37,0,2.74,2.7,2.74,3.49v0.56H44.02z
				 M47.75,68.28c-0.04-1.19-0.7-2.33-1.82-2.33c-1.12,0-1.66,0.87-1.93,2.33H47.75z"/>
			<path class="st2" d="M51.84,72.5h-1v-3.65c0-1.22-0.05-2.46-0.32-3.61h0.96l0.23,1.33c0.51-0.85,1.42-1.48,2.42-1.48
				c1.13,0,1.71,1.06,1.71,2.29v5.11h-1v-4.82c0-0.69,0-1.74-0.88-1.74c-0.94,0-2.13,0.98-2.13,3.53V72.5z"/>
			<path class="st2" d="M59.99,66.09h-2.02v-0.85h3.02v7.26h-1V66.09z M61.29,63.4c0,0.49-0.37,0.85-0.84,0.85s-0.84-0.37-0.84-0.85
				c0-0.49,0.37-0.85,0.84-0.85S61.29,62.91,61.29,63.4z"/>
			<path class="st2" d="M68.26,65.24h1v3.51c0,1.26,0.03,2.51,0.31,3.74h-0.94l-0.23-1.4c-0.47,0.8-1.42,1.55-2.34,1.55
				c-1.26,0-1.79-1.1-1.79-2.36v-5.05h1v4.75c0,0.68,0,1.8,0.88,1.8c0.98,0,2.13-1.13,2.13-3.58V65.24z"/>
			<path class="st2" d="M71.51,67.49c0-0.99-0.13-1.64-0.29-2.4h1l0.15,0.65c0.43-0.38,0.8-0.65,1.4-0.65
				c0.65,0,0.82,0.16,1.21,0.66c0.41-0.38,0.78-0.66,1.37-0.66c0.96,0,1.57,0.64,1.57,1.61v5.79h-1v-5.79
				c0-0.49-0.25-0.76-0.65-0.76c-0.45,0-0.84,0.38-1.05,0.76v5.79h-1v-5.72c0-0.38-0.11-0.83-0.56-0.83c-0.48,0-0.96,0.43-1.14,0.88
				v5.67h-1V67.49z"/>
		</g>
		<g>
			<g>
				<g>
					<path class="st2" d="M22.7,58.72V27.35h10.99c3.13,0,5.57,0.79,7.32,2.37c1.75,1.58,2.62,3.82,2.62,6.72
						c0,2.06-0.52,3.82-1.57,5.26c-1.05,1.45-2.5,2.47-4.36,3.07c-0.46,0.12-0.53,0.4-0.23,0.85l1.41,2.2l4.06,10.89h-5.34
						l-4.97-13.4h-4.84v13.4H22.7z M27.77,41.06h6.02c1.58,0,2.82-0.4,3.72-1.21c0.9-0.81,1.35-1.94,1.35-3.4
						c0-1.55-0.45-2.76-1.35-3.61c-0.9-0.85-2.14-1.28-3.72-1.28h-6.02V41.06z"/>
				</g>
			</g>
			<path class="st3" d="M77.9,51.79v-9.03c0-1.49-0.32-2.78-0.96-3.85c-0.64-1.08-1.55-1.9-2.74-2.46c-1.19-0.57-2.59-0.85-4.2-0.85
				c-0.85,0-1.7,0.09-2.53,0.27c-0.84,0.18-1.61,0.45-2.33,0.81c-0.72,0.36-1.33,0.79-1.85,1.3c-0.79-0.78-1.66-1.37-2.62-1.77
				c-0.96-0.4-2.11-0.6-3.44-0.6s-2.53,0.25-3.58,0.74c-1.05,0.49-1.83,1.01-2.35,1.54v-1.75h-4.79v22.58h4.93V43.57
				c0-1.17,0.33-2.06,1-2.69c0.67-0.63,1.79-0.94,3.38-0.94c1.28,0,2.25,0.31,2.92,0.94c0.67,0.63,1,1.52,1,2.69v15.14h4.93V43.57
				c0-1.17,0.31-2.06,0.93-2.69c0.62-0.63,1.67-0.94,3.12-0.94c1.52,0,2.61,0.31,3.26,0.94c0.65,0.63,0.98,1.52,0.98,2.69v13.6
				C76.43,55.91,77.55,53.42,77.9,51.79z"/>
		</g>
	</g>
</g>
</svg>